STARTFONT 2.1
FONT -sun-helmet-medium-i-normal--20-200-75-75-p-109-adobe-fontspecific
SIZE 20 75 75
FONTBOUNDINGBOX 24 25 -2 -5

STARTPROPERTIES 28
FOUNDRY "sun"
FAMILY_NAME "helmet"
WEIGHT_NAME "medium"
SLANT "i"
SETWIDTH_NAME "normal"
ADD_STYLE_NAME ""
PIXEL_SIZE 21
POINT_SIZE 200
RESOLUTION_X 75
RESOLUTION_Y 75
SPACING "p"
AVERAGE_WIDTH 109
CHARSET_REGISTRY "adobe"
CHARSET_ENCODING "fontspecific"
COPYRIGHT "© 1999 Sun Microsystems, Inc."
RAW_PIXELSIZE 1000
RAW_POINTSIZE 964
RAW_ASCENT 915
RAW_DESCENT 196
RAW_AVERAGE_WIDTH 5251
FACE_NAME "HelmetItalicalic5"
_XMBDFED_INFO "Edited with xmbdfed 2.4."
WEIGHT 10
X_HEIGHT -1
QUAD_WIDTH 11
DEFAULT_CHAR 4
FONT_DESCENT 5
FONT_ASCENT 20
ENDPROPERTIES

CHARS 202

STARTCHAR char32
ENCODING 32
SWIDTH 25 0
DWIDTH 6 0
BBX 0 0 0 0
BITMAP
ENDCHAR

STARTCHAR char33
ENCODING 33
SWIDTH 25 0
DWIDTH 6 0
BBX 6 15 1 0
BITMAP
1C
18
18
18
10
30
30
30
20
20
60
00
00
E0
C0
ENDCHAR

STARTCHAR char34
ENCODING 34
SWIDTH 34 0
DWIDTH 8 0
BBX 7 6 2 9
BITMAP
66
6E
26
64
C8
88
ENDCHAR

STARTCHAR char35
ENCODING 35
SWIDTH 3 0
DWIDTH 11 0
BBX 10 15 0 0
BITMAP
0880
1980
1980
1980
7FC0
1FC0
1100
1100
3300
FFC0
7FC0
3300
2200
2200
2200
ENDCHAR

STARTCHAR char36
ENCODING 36
SWIDTH 8 0
DWIDTH 12 0
BBX 11 19 0 -2
BITMAP
0100
0100
0F80
1FC0
3260
3260
3200
3200
1E00
0F00
0780
04C0
CCC0
C8C0
C9C0
7F80
3F00
1800
1000
ENDCHAR

STARTCHAR char37
ENCODING 37
SWIDTH 33 0
DWIDTH 18 0
BBX 16 15 1 0
BITMAP
3C10
7E30
4660
C640
C6C0
CE8E
CD9F
DD33
DB23
7263
0663
0C67
0C66
187E
083C
ENDCHAR

STARTCHAR char38
ENCODING 38
SWIDTH 12 0
DWIDTH 13 0
BBX 12 15 0 0
BITMAP
0700
0FC0
18C0
18C0
1DC0
0F80
1E00
3E00
6330
C330
C1E0
C0E0
E0C0
7FE0
3E30
ENDCHAR

STARTCHAR char39
ENCODING 39
SWIDTH 21 0
DWIDTH 5 0
BBX 4 5 2 10
BITMAP
30
60
40
60
E0
ENDCHAR

STARTCHAR char40
ENCODING 40
SWIDTH 30 0
DWIDTH 7 0
BBX 7 18 2 -3
BITMAP
04
0C
18
30
30
60
60
60
C0
C0
C0
C0
C0
C0
C0
C0
40
40
ENDCHAR

STARTCHAR char41
ENCODING 41
SWIDTH 30 0
DWIDTH 7 0
BBX 7 19 -2 -4
BITMAP
0C
0C
04
06
06
06
06
06
06
06
0E
0C
0C
18
18
30
60
40
80
ENDCHAR

STARTCHAR char42
ENCODING 42
SWIDTH 34 0
DWIDTH 8 0
BBX 7 6 2 9
BITMAP
18
50
FE
38
78
C8
ENDCHAR

STARTCHAR char43
ENCODING 43
SWIDTH 16 0
DWIDTH 14 0
BBX 13 12 1 0
BITMAP
0300
0300
0300
0300
0300
FFF8
FFF8
0300
0300
0300
0300
0300
ENDCHAR

STARTCHAR char44
ENCODING 44
SWIDTH 21 0
DWIDTH 5 0
BBX 4 5 -1 -3
BITMAP
70
60
20
60
40
ENDCHAR

STARTCHAR char45
ENCODING 45
SWIDTH 34 0
DWIDTH 8 0
BBX 6 2 1 5
BITMAP
FC
FC
ENDCHAR

STARTCHAR char46
ENCODING 46
SWIDTH 21 0
DWIDTH 5 0
BBX 3 2 0 0
BITMAP
E0
C0
ENDCHAR

STARTCHAR char47
ENCODING 47
SWIDTH 34 0
DWIDTH 8 0
BBX 8 15 0 0
BITMAP
03
02
06
04
0C
08
18
18
30
30
20
60
40
C0
C0
ENDCHAR

STARTCHAR char48
ENCODING 48
SWIDTH 8 0
DWIDTH 12 0
BBX 10 15 1 0
BITMAP
0F00
1F80
31C0
70C0
60C0
60C0
C0C0
C0C0
C0C0
C080
C180
C180
C300
7F00
3C00
ENDCHAR

STARTCHAR char49
ENCODING 49
SWIDTH 8 0
DWIDTH 12 0
BBX 6 15 3 0
BITMAP
04
0C
3C
FC
0C
18
18
18
18
18
30
30
30
30
60
ENDCHAR

STARTCHAR char50
ENCODING 50
SWIDTH 8 0
DWIDTH 12 0
BBX 11 15 0 0
BITMAP
0780
1FC0
18E0
3060
3060
0060
00C0
01C0
0700
0E00
3800
7000
6000
FFC0
FF80
ENDCHAR

STARTCHAR char51
ENCODING 51
SWIDTH 8 0
DWIDTH 12 0
BBX 10 15 1 0
BITMAP
0F00
3F80
30C0
60C0
00C0
00C0
0F80
0F00
0180
0180
C180
C180
C380
7F00
3E00
ENDCHAR

STARTCHAR char52
ENCODING 52
SWIDTH 8 0
DWIDTH 12 0
BBX 11 15 0 0
BITMAP
0060
00E0
01C0
03C0
06C0
0EC0
0CC0
1880
3180
6180
7FC0
FFC0
0300
0300
0300
ENDCHAR

STARTCHAR char53
ENCODING 53
SWIDTH 8 0
DWIDTH 12 0
BBX 10 15 1 0
BITMAP
1FC0
3FC0
3000
3000
2000
6F00
7F80
61C0
00C0
00C0
00C0
C1C0
E380
7F00
3E00
ENDCHAR

STARTCHAR char54
ENCODING 54
SWIDTH 8 0
DWIDTH 12 0
BBX 11 15 1 0
BITMAP
0780
1FC0
38E0
3060
6000
6F00
FF80
F1C0
E0C0
C0C0
C0C0
C1C0
E180
7F00
3E00
ENDCHAR

STARTCHAR char55
ENCODING 55
SWIDTH 8 0
DWIDTH 12 0
BBX 10 15 2 0
BITMAP
FFC0
FFC0
0180
0300
0300
0600
0C00
1800
1800
3000
3000
6000
6000
E000
C000
ENDCHAR

STARTCHAR char56
ENCODING 56
SWIDTH 8 0
DWIDTH 12 0
BBX 11 15 1 0
BITMAP
0F80
3FC0
30E0
6060
6060
70C0
3F80
7F80
E1C0
C1C0
80C0
81C0
C180
7F00
3E00
ENDCHAR

STARTCHAR char57
ENCODING 57
SWIDTH 8 0
DWIDTH 12 0
BBX 10 15 1 0
BITMAP
1F00
3F80
70C0
60C0
60C0
40C0
60C0
61C0
3FC0
1D80
0180
C380
C700
7E00
3C00
ENDCHAR

STARTCHAR char58
ENCODING 58
SWIDTH 25 0
DWIDTH 6 0
BBX 5 10 1 0
BITMAP
30
30
00
00
00
00
00
00
E0
C0
ENDCHAR

STARTCHAR char59
ENCODING 59
SWIDTH 25 0
DWIDTH 6 0
BBX 6 13 0 -3
BITMAP
18
18
00
00
00
00
00
00
70
60
20
60
C0
ENDCHAR

STARTCHAR char60
ENCODING 60
SWIDTH 8 0
DWIDTH 12 0
BBX 11 11 0 0
BITMAP
0020
00E0
0380
0E00
3800
E000
7000
1C00
0700
01C0
0060
ENDCHAR

STARTCHAR char61
ENCODING 61
SWIDTH 16 0
DWIDTH 14 0
BBX 15 6 0 3
BITMAP
FFFE
FFFE
0000
0000
FFFE
FFFE
ENDCHAR

STARTCHAR char62
ENCODING 62
SWIDTH 8 0
DWIDTH 12 0
BBX 10 11 1 0
BITMAP
8000
C000
7000
1E00
0380
00C0
01C0
0F00
3800
E000
8000
ENDCHAR

STARTCHAR char63
ENCODING 63
SWIDTH 3 0
DWIDTH 11 0
BBX 9 15 2 0
BITMAP
1E00
7F00
6180
C180
C180
0180
0300
0E00
1C00
3800
3000
0000
0000
7000
6000
ENDCHAR

STARTCHAR char64
ENCODING 64
SWIDTH 11 0
DWIDTH 23 0
BBX 15 16 3 0
BITMAP
03C0
0FF0
1838
300C
6394
67F6
CC76
D826
D826
D866
D8C4
4FF8
6774
300C
1FF8
07E0
ENDCHAR

STARTCHAR char65
ENCODING 65
SWIDTH 16 0
DWIDTH 14 0
BBX 13 15 -1 0
BITMAP
00E0
01E0
01E0
0360
0360
0660
0E30
0C30
1C30
1FF0
3FF0
3030
7030
E018
6018
ENDCHAR

STARTCHAR char66
ENCODING 66
SWIDTH 16 0
DWIDTH 14 0
BBX 12 15 0 0
BITMAP
1FC0
1FE0
3030
3030
3030
3030
7FE0
7FE0
6060
6020
6020
C020
C060
FFE0
FF80
ENDCHAR

STARTCHAR char67
ENCODING 67
SWIDTH 20 0
DWIDTH 15 0
BBX 13 15 1 0
BITMAP
07C0
1FF0
3838
3018
6018
6000
C000
C000
C000
C000
C030
E030
70E0
3FC0
1F00
ENDCHAR

STARTCHAR char68
ENCODING 68
SWIDTH 16 0
DWIDTH 14 0
BBX 13 15 0 0
BITMAP
1FC0
3FF0
3070
3038
3018
3018
6018
6018
6018
6030
6030
C070
C0E0
FFC0
FF00
ENDCHAR

STARTCHAR char69
ENCODING 69
SWIDTH 8 0
DWIDTH 12 0
BBX 12 15 0 0
BITMAP
1FF0
1FF0
3000
3000
3000
3000
3FE0
7FE0
6000
6000
6000
6000
C000
FFC0
FFC0
ENDCHAR

STARTCHAR char70
ENCODING 70
SWIDTH 3 0
DWIDTH 11 0
BBX 12 15 0 0
BITMAP
1FF0
1FE0
3800
3000
3000
3000
3FC0
7FC0
6000
6000
6000
6000
E000
C000
C000
ENDCHAR

STARTCHAR char71
ENCODING 71
SWIDTH 25 0
DWIDTH 16 0
BBX 13 15 1 0
BITMAP
07E0
1FF0
3838
7018
6000
E000
C000
C3F8
C3F8
C018
C030
C030
60F0
3FF0
1F30
ENDCHAR

STARTCHAR char72
ENCODING 72
SWIDTH 16 0
DWIDTH 14 0
BBX 14 15 0 0
BITMAP
180C
180C
300C
3018
3018
3018
7FF8
7FF8
6030
6030
6030
E030
C070
C060
C060
ENDCHAR

STARTCHAR char73
ENCODING 73
SWIDTH 21 0
DWIDTH 5 0
BBX 6 15 0 0
BITMAP
18
18
18
18
38
30
30
30
30
60
60
60
60
E0
C0
ENDCHAR

STARTCHAR char74
ENCODING 74
SWIDTH 3 0
DWIDTH 11 0
BBX 11 15 0 0
BITMAP
0040
00E0
00C0
00C0
00C0
00C0
0180
0180
0180
0180
C380
C300
C300
FE00
7C00
ENDCHAR

STARTCHAR char75
ENCODING 75
SWIDTH 12 0
DWIDTH 13 0
BBX 14 15 0 0
BITMAP
1838
1870
30E0
31C0
3380
3700
7E00
7F00
7300
6380
6180
E1C0
C0C0
C0E0
C060
ENDCHAR

STARTCHAR char76
ENCODING 76
SWIDTH 8 0
DWIDTH 12 0
BBX 10 15 0 0
BITMAP
1800
1800
3800
3000
3000
3000
3000
7000
6000
6000
6000
6000
C000
FFC0
FFC0
ENDCHAR

STARTCHAR char77
ENCODING 77
SWIDTH 29 0
DWIDTH 17 0
BBX 16 15 0 0
BITMAP
1803
3C07
3C07
3C0F
3C1B
6C1B
6C36
6436
6466
6666
E6CE
C6CC
C78C
C70C
C70C
ENDCHAR

STARTCHAR char78
ENCODING 78
SWIDTH 16 0
DWIDTH 14 0
BBX 14 15 0 0
BITMAP
180C
1C0C
3C0C
3C18
3618
3618
6718
6318
6330
61B0
61B0
C0F0
C0F0
C0E0
C060
ENDCHAR

STARTCHAR char79
ENCODING 79
SWIDTH 25 0
DWIDTH 16 0
BBX 14 15 1 0
BITMAP
07E0
1FF0
3838
701C
600C
C00C
C00C
C00C
C00C
C018
C018
C030
6060
3FC0
1F80
ENDCHAR

STARTCHAR char80
ENCODING 80
SWIDTH 12 0
DWIDTH 13 0
BBX 12 15 0 0
BITMAP
1FC0
1FE0
3870
3030
3030
3030
3060
7FE0
7FC0
6000
6000
E000
C000
C000
C000
ENDCHAR

STARTCHAR char81
ENCODING 81
SWIDTH 25 0
DWIDTH 16 0
BBX 14 17 1 -2
BITMAP
07C0
1FF0
3838
301C
600C
400C
C00C
C00C
C01C
C018
C038
C130
63E0
3FC0
1F60
0070
0020
ENDCHAR

STARTCHAR char82
ENCODING 82
SWIDTH 16 0
DWIDTH 14 0
BBX 13 15 0 0
BITMAP
1FE0
1FF0
3038
3018
3018
3018
7070
7FE0
7FE0
6060
6060
E060
C060
C060
C070
ENDCHAR

STARTCHAR char83
ENCODING 83
SWIDTH 12 0
DWIDTH 13 0
BBX 12 15 0 0
BITMAP
0FC0
1FE0
3070
3030
3000
3800
1E00
0F80
03C0
00E0
C060
C060
E0E0
7FC0
1F00
ENDCHAR

STARTCHAR char84
ENCODING 84
SWIDTH 3 0
DWIDTH 11 0
BBX 11 15 2 0
BITMAP
FFC0
FFC0
0C00
0C00
1C00
1800
1800
1800
1800
3000
3000
3000
3000
7000
2000
ENDCHAR

STARTCHAR char85
ENCODING 85
SWIDTH 16 0
DWIDTH 14 0
BBX 13 15 1 0
BITMAP
3018
3038
6030
6030
6030
6030
6070
4060
C060
C060
C060
C0C0
E1C0
7F80
3E00
ENDCHAR

STARTCHAR char86
ENCODING 86
SWIDTH 12 0
DWIDTH 13 0
BBX 12 15 2 0
BITMAP
C070
C070
C0E0
C0E0
60C0
6180
6180
6300
6300
6600
2600
3C00
3C00
3800
3800
ENDCHAR

STARTCHAR char87
ENCODING 87
SWIDTH 33 0
DWIDTH 18 0
BBX 18 15 1 0
BITMAP
E0C0C0
61C1C0
61C180
61C380
636300
636300
666600
666600
6E6600
6C6C00
7C6C00
787800
787800
707800
703000
ENDCHAR

STARTCHAR char88
ENCODING 88
SWIDTH 12 0
DWIDTH 13 0
BBX 14 15 -1 0
BITMAP
1818
1838
0C70
0C60
06C0
07C0
0380
0300
0780
0D80
1D80
38C0
70C0
E060
4060
ENDCHAR

STARTCHAR char89
ENCODING 89
SWIDTH 12 0
DWIDTH 13 0
BBX 12 15 2 0
BITMAP
C070
E0E0
60C0
61C0
7380
3300
3600
3E00
1C00
1800
1800
3800
3000
3000
3000
ENDCHAR

STARTCHAR char90
ENCODING 90
SWIDTH 12 0
DWIDTH 13 0
BBX 13 15 -1 0
BITMAP
1FF8
1FF8
0038
0070
00E0
01C0
0380
0300
0600
0C00
1800
3800
7000
7FF0
7FF0
ENDCHAR

STARTCHAR char91
ENCODING 91
SWIDTH 38 0
DWIDTH 9 0
BBX 10 18 1 -3
BITMAP
0FC0
0F80
0C00
0C00
1C00
1800
1800
3800
3000
3000
3000
7000
6000
6000
6000
C000
F800
F800
ENDCHAR

STARTCHAR char92
ENCODING 92
SWIDTH 25 0
DWIDTH 6 0
BBX 6 15 0 0
BITMAP
80
C0
40
40
60
20
20
30
10
10
18
08
08
0C
04
ENDCHAR

STARTCHAR char93
ENCODING 93
SWIDTH 38 0
DWIDTH 9 0
BBX 10 18 -2 -3
BITMAP
0FC0
0FC0
0180
0180
0180
0300
0300
0300
0700
0600
0600
0600
0E00
0C00
0C00
1C00
F800
F800
ENDCHAR

STARTCHAR char94
ENCODING 94
SWIDTH 0 0
DWIDTH 0 0
BBX 6 3 -1 16
BITMAP
38
6C
CC
ENDCHAR

STARTCHAR char95
ENCODING 95
SWIDTH 8 0
DWIDTH 12 0
BBX 12 2 0 -3
BITMAP
FFF0
FFF0
ENDCHAR

STARTCHAR char96
ENCODING 96
SWIDTH 0 0
DWIDTH 0 0
BBX 5 3 -2 12
BITMAP
70
30
18
ENDCHAR

STARTCHAR char97
ENCODING 97
SWIDTH 3 0
DWIDTH 11 0
BBX 11 11 0 0
BITMAP
0F80
3FC0
60C0
00C0
0FC0
7F80
E180
C180
C380
FFA0
3DC0
ENDCHAR

STARTCHAR char98
ENCODING 98
SWIDTH 8 0
DWIDTH 12 0
BBX 11 15 0 0
BITMAP
1800
1800
3000
3000
3780
3FC0
30E0
6060
6060
6060
60E0
E0C0
E1C0
FF80
DF00
ENDCHAR

STARTCHAR char99
ENCODING 99
SWIDTH 3 0
DWIDTH 11 0
BBX 10 11 0 0
BITMAP
0F80
3FC0
70C0
6040
E000
C000
C000
C000
E180
7F00
3E00
ENDCHAR

STARTCHAR char100
ENCODING 100
SWIDTH 8 0
DWIDTH 12 0
BBX 12 15 0 0
BITMAP
0030
0030
0020
0060
0F60
3FE0
70E0
60C0
E0C0
C0C0
C0C0
C1C0
E180
7F80
3D80
ENDCHAR

STARTCHAR char101
ENCODING 101
SWIDTH 8 0
DWIDTH 12 0
BBX 10 11 0 0
BITMAP
1F00
3F80
70C0
60C0
FFC0
FFC0
C000
C000
E180
7F00
3E00
ENDCHAR

STARTCHAR char102
ENCODING 102
SWIDTH 25 0
DWIDTH 6 0
BBX 6 15 1 0
BITMAP
1C
1C
30
30
FC
FC
30
60
60
60
60
C0
C0
C0
C0
ENDCHAR

STARTCHAR char103
ENCODING 103
SWIDTH 8 0
DWIDTH 12 0
BBX 11 14 0 -3
BITMAP
1F60
3FE0
70E0
E0C0
C0C0
C0C0
C0C0
C1C0
E180
7F80
3D80
0180
DF00
7C00
ENDCHAR

STARTCHAR char104
ENCODING 104
SWIDTH 8 0
DWIDTH 12 0
BBX 10 15 0 0
BITMAP
1800
1800
1000
3000
3780
3FC0
38C0
70C0
60C0
60C0
6180
6180
C180
C180
C100
ENDCHAR

STARTCHAR char105
ENCODING 105
SWIDTH 21 0
DWIDTH 5 0
BBX 5 15 0 0
BITMAP
18
18
00
00
30
30
30
30
30
60
60
60
60
E0
C0
ENDCHAR

STARTCHAR char106
ENCODING 106
SWIDTH 21 0
DWIDTH 5 0
BBX 7 18 -2 -3
BITMAP
06
06
00
00
0C
0C
0C
18
18
18
18
18
30
30
30
30
E0
E0
ENDCHAR

STARTCHAR char107
ENCODING 107
SWIDTH 43 0
DWIDTH 10 0
BBX 11 15 0 0
BITMAP
1800
1800
3000
3000
30E0
3180
2300
6E00
7C00
7600
6600
C700
C300
C300
C380
ENDCHAR

STARTCHAR char108
ENCODING 108
SWIDTH 21 0
DWIDTH 5 0
BBX 5 15 0 0
BITMAP
18
18
18
18
30
30
30
30
70
60
60
60
60
C0
C0
ENDCHAR

STARTCHAR char109
ENCODING 109
SWIDTH 33 0
DWIDTH 18 0
BBX 16 11 0 0
BITMAP
379E
3FBF
71E3
61C3
6183
6186
C186
C186
C306
C30E
C304
ENDCHAR

STARTCHAR char110
ENCODING 110
SWIDTH 8 0
DWIDTH 12 0
BBX 10 11 0 0
BITMAP
3780
3FC0
38C0
70C0
60C0
6080
6180
C180
C180
C180
C100
ENDCHAR

STARTCHAR char111
ENCODING 111
SWIDTH 8 0
DWIDTH 12 0
BBX 11 11 0 0
BITMAP
0F80
3FC0
70E0
6060
E060
C060
C060
C0C0
E1C0
7F80
3F00
ENDCHAR

STARTCHAR char112
ENCODING 112
SWIDTH 8 0
DWIDTH 12 0
BBX 12 14 -1 -3
BITMAP
1BC0
17E0
3870
3030
3030
3030
3070
7060
70E0
7FC0
6F80
C000
C000
C000
ENDCHAR

STARTCHAR char113
ENCODING 113
SWIDTH 8 0
DWIDTH 12 0
BBX 11 14 0 -3
BITMAP
1F20
3FE0
70E0
60E0
E0C0
C0C0
C0C0
C0C0
E180
7F80
3D80
0180
0300
0300
ENDCHAR

STARTCHAR char114
ENCODING 114
SWIDTH 30 0
DWIDTH 7 0
BBX 8 11 0 0
BITMAP
37
3F
38
30
70
60
60
60
60
C0
C0
ENDCHAR

STARTCHAR char115
ENCODING 115
SWIDTH 43 0
DWIDTH 10 0
BBX 10 11 0 0
BITMAP
1F00
3F80
6180
7000
3800
1F00
0780
C180
C180
7F00
3E00
ENDCHAR

STARTCHAR char116
ENCODING 116
SWIDTH 25 0
DWIDTH 6 0
BBX 5 14 1 0
BITMAP
30
30
30
F8
F8
60
60
60
40
C0
C0
C0
F0
E0
ENDCHAR

STARTCHAR char117
ENCODING 117
SWIDTH 8 0
DWIDTH 12 0
BBX 10 11 1 0
BITMAP
20C0
60C0
6180
4180
4180
4180
C300
C300
C700
FF00
7300
ENDCHAR

STARTCHAR char118
ENCODING 118
SWIDTH 43 0
DWIDTH 10 0
BBX 9 11 1 0
BITMAP
C180
C380
C300
C700
C600
CC00
4C00
5800
7800
7000
7000
ENDCHAR

STARTCHAR char119
ENCODING 119
SWIDTH 20 0
DWIDTH 15 0
BBX 15 11 0 0
BITMAP
6186
638E
638C
678C
6598
6D98
6DB0
69B0
79E0
31E0
31C0
ENDCHAR

STARTCHAR char120
ENCODING 120
SWIDTH 43 0
DWIDTH 10 0
BBX 11 11 -1 0
BITMAP
30E0
18C0
19C0
0F80
0F00
0E00
1E00
3B00
3300
6180
E180
ENDCHAR

STARTCHAR char121
ENCODING 121
SWIDTH 43 0
DWIDTH 10 0
BBX 12 14 -1 -3
BITMAP
3060
3060
30C0
10C0
1980
1980
1B00
1B00
1E00
1E00
0C00
1C00
5800
7000
ENDCHAR

STARTCHAR char122
ENCODING 122
SWIDTH 43 0
DWIDTH 10 0
BBX 11 11 -1 0
BITMAP
3FE0
3FC0
0180
0300
0600
0E00
1C00
3800
7000
7F80
FF80
ENDCHAR

STARTCHAR char123
ENCODING 123
SWIDTH 30 0
DWIDTH 7 0
BBX 5 19 1 -4
BITMAP
38
78
60
60
20
20
20
60
40
80
60
60
60
60
60
60
60
78
38
ENDCHAR

STARTCHAR char124
ENCODING 124
SWIDTH 25 0
DWIDTH 6 0
BBX 2 15 2 0
BITMAP
C0
C0
C0
C0
C0
C0
C0
C0
C0
C0
C0
C0
C0
C0
C0
ENDCHAR

STARTCHAR char125
ENCODING 125
SWIDTH 30 0
DWIDTH 7 0
BBX 5 19 1 -4
BITMAP
C0
E0
20
20
30
30
30
30
10
08
10
30
30
30
30
30
30
F0
E0
ENDCHAR

STARTCHAR char126
ENCODING 126
SWIDTH 0 0
DWIDTH 0 0
BBX 7 3 -1 16
BITMAP
70
FE
9C
ENDCHAR

STARTCHAR char128
ENCODING 128
SWIDTH 8 0
DWIDTH 12 0
BBX 12 15 1 0
BITMAP
03E0
0FF0
1C10
3800
3000
FF00
FFC0
6000
FF80
EF80
6000
6000
3000
1FC0
0F80
ENDCHAR

STARTCHAR char130
ENCODING 130
SWIDTH 21 0
DWIDTH 5 0
BBX 4 5 -1 -3
BITMAP
30
70
20
60
40
ENDCHAR

STARTCHAR char131
ENCODING 131
SWIDTH 0 0
DWIDTH 0 0
BBX 6 3 -1 16
BITMAP
38
6C
CC
ENDCHAR

STARTCHAR char132
ENCODING 132
SWIDTH 34 0
DWIDTH 8 0
BBX 7 5 -1 -3
BITMAP
66
66
24
4C
C8
ENDCHAR

STARTCHAR char133
ENCODING 133
SWIDTH 7 0
DWIDTH 22 0
BBX 16 2 2 0
BITMAP
C183
C183
ENDCHAR

STARTCHAR char134
ENCODING 134
SWIDTH 3 0
DWIDTH 11 0
BBX 10 17 1 -2
BITMAP
0600
0600
0600
0C00
7F80
FF80
0C00
1C00
1800
1800
1800
1800
3800
3000
3000
3000
3000
ENDCHAR

STARTCHAR char136
ENCODING 136
SWIDTH 0 0
DWIDTH 0 0
BBX 7 3 -2 12
BITMAP
38
6C
E4
ENDCHAR

STARTCHAR char138
ENCODING 138
SWIDTH 3 0
DWIDTH 21 0
BBX 0 0 0 0
BITMAP
ENDCHAR

STARTCHAR char139
ENCODING 139
SWIDTH 30 0
DWIDTH 7 0
BBX 3 7 2 2
BITMAP
20
60
C0
80
E0
60
20
ENDCHAR

STARTCHAR char140
ENCODING 140
SWIDTH 7 0
DWIDTH 22 0
BBX 22 15 0 0
BITMAP
07CFFC
1FFFF8
3C3C00
301C00
701800
601800
E01FF0
C01FF0
C01800
C03000
C03000
E03000
707000
7FBFE0
1F7FE0
ENDCHAR

STARTCHAR char141
ENCODING 141
SWIDTH 3 0
DWIDTH 21 0
BBX 0 0 0 0
BITMAP
ENDCHAR

STARTCHAR char145
ENCODING 145
SWIDTH 21 0
DWIDTH 5 0
BBX 4 4 2 10
BITMAP
60
40
60
E0
ENDCHAR

STARTCHAR char146
ENCODING 146
SWIDTH 21 0
DWIDTH 5 0
BBX 4 6 2 9
BITMAP
60
60
20
60
C0
80
ENDCHAR

STARTCHAR char147
ENCODING 147
SWIDTH 34 0
DWIDTH 8 0
BBX 7 4 2 10
BITMAP
64
4C
EC
CC
ENDCHAR

STARTCHAR char148
ENCODING 148
SWIDTH 34 0
DWIDTH 8 0
BBX 7 6 2 9
BITMAP
66
6E
26
64
C8
88
ENDCHAR

STARTCHAR char149
ENCODING 149
SWIDTH 30 0
DWIDTH 7 0
BBX 5 5 1 5
BITMAP
70
F8
F8
F8
70
ENDCHAR

STARTCHAR char150
ENCODING 150
SWIDTH 8 0
DWIDTH 12 0
BBX 11 2 0 5
BITMAP
7FE0
7FE0
ENDCHAR

STARTCHAR char151
ENCODING 151
SWIDTH 16 0
DWIDTH 14 0
BBX 15 2 0 5
BITMAP
FFFE
FFFE
ENDCHAR

STARTCHAR char152
ENCODING 152
SWIDTH 0 0
DWIDTH 0 0
BBX 7 3 -1 12
BITMAP
62
FC
98
ENDCHAR

STARTCHAR char153
ENCODING 153
SWIDTH 38 0
DWIDTH 19 0
BBX 17 8 0 6
BITMAP
FE4100
924300
106300
306700
307700
305700
305B00
38CB80
ENDCHAR

STARTCHAR char155
ENCODING 155
SWIDTH 30 0
DWIDTH 7 0
BBX 3 7 2 2
BITMAP
80
C0
60
20
E0
80
80
ENDCHAR

STARTCHAR char156
ENCODING 156
SWIDTH 38 0
DWIDTH 19 0
BBX 17 11 0 0
BITMAP
1F1E00
3FBF00
70E180
60C180
C0FF80
C0FF80
C0C000
C1C000
E1C300
7FFE00
3E7C00
ENDCHAR

STARTCHAR char157
ENCODING 157
SWIDTH 3 0
DWIDTH 21 0
BBX 0 0 0 0
BITMAP
ENDCHAR

STARTCHAR char159
ENCODING 159
SWIDTH 12 0
DWIDTH 13 0
BBX 12 18 2 0
BITMAP
1980
1900
0000
C070
E0E0
60C0
61C0
7380
3300
3600
3E00
1C00
1800
1800
3800
3000
3000
3000
ENDCHAR

STARTCHAR char160
ENCODING 160
SWIDTH 25 0
DWIDTH 6 0
BBX 0 0 0 0
BITMAP
ENDCHAR

STARTCHAR char161
ENCODING 161
SWIDTH 25 0
DWIDTH 6 0
BBX 6 15 0 0
BITMAP
1C
18
00
00
10
10
30
30
30
60
60
60
60
E0
E0
ENDCHAR

STARTCHAR char162
ENCODING 162
SWIDTH 3 0
DWIDTH 11 0
BBX 10 16 0 -3
BITMAP
0100
0200
1F80
3FC0
72C0
6440
E400
C400
CC00
C800
E980
7F00
1E00
1000
1000
1000
ENDCHAR

STARTCHAR char163
ENCODING 163
SWIDTH 8 0
DWIDTH 12 0
BBX 12 15 0 0
BITMAP
07C0
0FE0
1C70
3830
3030
3000
3000
7E00
7F00
3800
3000
2000
7E20
7FC0
47C0
ENDCHAR

STARTCHAR char164
ENCODING 164
SWIDTH 0 0
DWIDTH 0 0
BBX 5 3 1 16
BITMAP
30
60
C0
ENDCHAR

STARTCHAR char165
ENCODING 165
SWIDTH 0 0
DWIDTH 0 0
BBX 6 3 0 16
BITMAP
CC
D8
70
ENDCHAR

STARTCHAR char166
ENCODING 166
SWIDTH 3 0
DWIDTH 21 0
BBX 0 0 0 0
BITMAP
ENDCHAR

STARTCHAR char167
ENCODING 167
SWIDTH 8 0
DWIDTH 12 0
BBX 11 18 0 -3
BITMAP
0780
0FC0
18C0
18E0
1C00
3C00
6600
6300
6180
70C0
38C0
1CC0
0F80
0700
0300
E300
7F00
3C00
ENDCHAR

STARTCHAR char168
ENCODING 168
SWIDTH 0 0
DWIDTH 0 0
BBX 6 2 -1 12
BITMAP
CC
C8
ENDCHAR

STARTCHAR char169
ENCODING 169
SWIDTH 29 0
DWIDTH 17 0
BBX 14 14 1 0
BITMAP
0F80
1FE0
2010
47C8
8C48
8844
9804
9804
9804
8804
4F88
4710
3FE0
0FC0
ENDCHAR

STARTCHAR char170
ENCODING 170
SWIDTH 0 0
DWIDTH 0 0
BBX 6 2 -1 16
BITMAP
CC
CC
ENDCHAR

STARTCHAR char171
ENCODING 171
SWIDTH 43 0
DWIDTH 10 0
BBX 8 7 1 2
BITMAP
11
73
EE
88
CC
66
22
ENDCHAR

STARTCHAR char172
ENCODING 172
SWIDTH 20 0
DWIDTH 15 0
BBX 14 6 0 0
BITMAP
FFFC
000C
000C
000C
000C
000C
ENDCHAR

STARTCHAR char174
ENCODING 174
SWIDTH 29 0
DWIDTH 17 0
BBX 14 14 1 0
BITMAP
0780
1FE0
2030
4F88
8CC8
8CC4
8884
8F04
8D84
8DC4
5EE8
4010
3FF0
0FC0
ENDCHAR

STARTCHAR char176
ENCODING 176
SWIDTH 25 0
DWIDTH 6 0
BBX 6 8 2 7
BITMAP
30
78
88
84
84
84
78
30
ENDCHAR

STARTCHAR char177
ENCODING 177
SWIDTH 8 0
DWIDTH 12 0
BBX 11 13 0 0
BITMAP
0C00
0C00
0C00
0C00
FFE0
FFE0
0C00
0C00
0C00
0C00
0C00
FFE0
FFE0
ENDCHAR

STARTCHAR char179
ENCODING 179
SWIDTH 3 0
DWIDTH 21 0
BBX 0 0 0 0
BITMAP
ENDCHAR

STARTCHAR char180
ENCODING 180
SWIDTH 0 0
DWIDTH 0 0
BBX 5 3 0 12
BITMAP
38
70
60
ENDCHAR

STARTCHAR char182
ENCODING 182
SWIDTH 20 0
DWIDTH 15 0
BBX 9 18 2 -3
BITMAP
3F80
7F80
F980
F980
F980
F980
F980
7980
1980
1980
1980
1980
1980
1980
1980
1980
1980
1980
ENDCHAR

STARTCHAR char183
ENCODING 183
SWIDTH 17 0
DWIDTH 4 0
BBX 2 3 2 5
BITMAP
C0
C0
C0
ENDCHAR

STARTCHAR char184
ENCODING 184
SWIDTH 0 0
DWIDTH 0 0
BBX 3 4 -2 -5
BITMAP
60
40
C0
80
ENDCHAR

STARTCHAR char186
ENCODING 186
SWIDTH 0 0
DWIDTH 0 0
BBX 7 3 -1 16
BITMAP
70
FE
9C
ENDCHAR

STARTCHAR char187
ENCODING 187
SWIDTH 43 0
DWIDTH 10 0
BBX 9 8 0 2
BITMAP
2200
6200
3300
1980
3380
6700
CC00
0800
ENDCHAR

STARTCHAR char189
ENCODING 189
SWIDTH 3 0
DWIDTH 21 0
BBX 0 0 0 0
BITMAP
ENDCHAR

STARTCHAR char191
ENCODING 191
SWIDTH 3 0
DWIDTH 11 0
BBX 9 15 0 0
BITMAP
0300
0300
0000
0000
0600
0600
0C00
3800
7000
E000
C180
C180
C380
7F00
3E00
ENDCHAR

STARTCHAR char192
ENCODING 192
SWIDTH 16 0
DWIDTH 14 0
BBX 13 19 -1 0
BITMAP
0380
01C0
00C0
0000
00E0
01E0
01E0
0360
0360
0660
0630
0C30
1C30
1FF0
3FF0
3030
7030
6018
6018
ENDCHAR

STARTCHAR char193
ENCODING 193
SWIDTH 16 0
DWIDTH 14 0
BBX 13 19 -1 0
BITMAP
0070
0060
00C0
0000
00E0
01E0
01E0
0360
0360
0660
0630
0C30
1C30
1FF0
3FF0
3030
7030
6018
6018
ENDCHAR

STARTCHAR char194
ENCODING 194
SWIDTH 16 0
DWIDTH 14 0
BBX 13 19 -1 0
BITMAP
00E0
01B0
0330
0000
00E0
01E0
01E0
0360
0360
0660
0630
0C30
1C30
1FF0
3FF0
3030
7030
6018
6018
ENDCHAR

STARTCHAR char195
ENCODING 195
SWIDTH 16 0
DWIDTH 14 0
BBX 13 19 -1 0
BITMAP
01C0
03F8
0270
0000
00E0
01E0
01E0
0360
0360
0620
0630
0C30
1C30
1FF0
3FF0
3030
7010
6018
6018
ENDCHAR

STARTCHAR char196
ENCODING 196
SWIDTH 16 0
DWIDTH 14 0
BBX 13 18 -1 0
BITMAP
0198
0198
0000
00E0
01E0
01E0
0360
0360
0660
0630
0C30
1C30
1FF0
3FF0
3030
7030
6018
6018
ENDCHAR

STARTCHAR char197
ENCODING 197
SWIDTH 16 0
DWIDTH 14 0
BBX 13 20 -1 0
BITMAP
00E0
01F0
01B0
01F0
00E0
01E0
01E0
03E0
0360
0760
0660
0E30
1C30
1C30
3FF0
3FF0
7030
7030
E018
6018
ENDCHAR

STARTCHAR char198
ENCODING 198
SWIDTH 42 0
DWIDTH 20 0
BBX 20 15 -1 0
BITMAP
00FFF0
01FFF0
019800
031800
031800
063000
0E3FE0
0C3FE0
1C3000
1FE000
3FE000
306000
606000
E07FC0
C0FFC0
ENDCHAR

STARTCHAR char199
ENCODING 199
SWIDTH 20 0
DWIDTH 15 0
BBX 13 20 1 -5
BITMAP
07C0
1FF0
3838
3018
6018
6000
C000
C000
C000
C000
C030
E030
70E0
3FC0
1F00
0000
0C00
0C00
0800
0800
ENDCHAR

STARTCHAR char200
ENCODING 200
SWIDTH 8 0
DWIDTH 12 0
BBX 12 19 0 0
BITMAP
0E00
0300
0180
0000
1FF0
1FF0
3000
3000
3000
3000
3FE0
7FE0
6000
6000
6000
6000
C000
FFC0
FFC0
ENDCHAR

STARTCHAR char201
ENCODING 201
SWIDTH 8 0
DWIDTH 12 0
BBX 12 19 0 0
BITMAP
00C0
0180
0300
0000
1FF0
1FF0
3000
3000
3000
3000
3FE0
7FE0
6000
6000
6000
6000
C000
FFC0
FFC0
ENDCHAR

STARTCHAR char202
ENCODING 202
SWIDTH 8 0
DWIDTH 12 0
BBX 12 19 0 0
BITMAP
0380
06C0
0C40
0000
1FF0
1FF0
3000
3000
3000
3000
3FE0
7FE0
6000
6000
6000
6000
C000
FFC0
FFC0
ENDCHAR

STARTCHAR char203
ENCODING 203
SWIDTH 8 0
DWIDTH 12 0
BBX 12 18 0 0
BITMAP
06C0
0CC0
0000
1FF0
1FF0
3000
3000
3000
3000
3FE0
7FE0
6000
6000
6000
6000
C000
FFC0
FFC0
ENDCHAR

STARTCHAR char204
ENCODING 204
SWIDTH 21 0
DWIDTH 5 0
BBX 6 19 0 0
BITMAP
70
38
0C
00
1C
18
18
18
38
30
30
30
30
70
60
60
60
E0
40
ENDCHAR

STARTCHAR char205
ENCODING 205
SWIDTH 21 0
DWIDTH 5 0
BBX 8 19 0 0
BITMAP
06
0C
18
00
1C
18
18
18
38
30
30
30
30
70
60
60
60
E0
40
ENDCHAR

STARTCHAR char206
ENCODING 206
SWIDTH 21 0
DWIDTH 5 0
BBX 7 19 0 0
BITMAP
1C
36
66
00
18
18
18
18
38
30
30
30
30
70
60
60
60
E0
40
ENDCHAR

STARTCHAR char207
ENCODING 207
SWIDTH 21 0
DWIDTH 5 0
BBX 7 18 0 0
BITMAP
36
66
00
1C
18
18
18
38
30
30
30
30
70
60
60
60
E0
40
ENDCHAR

STARTCHAR char209
ENCODING 209
SWIDTH 16 0
DWIDTH 14 0
BBX 14 18 0 0
BITMAP
07F0
04E0
0000
180C
180C
3C0C
3C18
3618
3618
6718
6318
6330
61B0
61B0
C0F0
C0F0
C0E0
C060
ENDCHAR

STARTCHAR char210
ENCODING 210
SWIDTH 25 0
DWIDTH 16 0
BBX 14 19 1 0
BITMAP
0700
0380
0180
0000
07E0
1FF0
3838
701C
600C
C00C
C00C
C00C
C00C
C018
C018
C030
6060
3FC0
1F80
ENDCHAR

STARTCHAR char211
ENCODING 211
SWIDTH 25 0
DWIDTH 16 0
BBX 14 19 1 0
BITMAP
00E0
00C0
0180
0000
07E0
1FF0
3838
701C
600C
C00C
C00C
C00C
C00C
C018
C018
C030
6060
3FC0
1F80
ENDCHAR

STARTCHAR char212
ENCODING 212
SWIDTH 25 0
DWIDTH 16 0
BBX 14 19 1 0
BITMAP
01C0
0340
0660
0000
07E0
1FF0
3838
701C
600C
C00C
C00C
C00C
C00C
C018
C018
C030
6060
3FC0
1F80
ENDCHAR

STARTCHAR char213
ENCODING 213
SWIDTH 25 0
DWIDTH 16 0
BBX 14 19 1 0
BITMAP
0180
07F0
04E0
0000
07E0
1FF0
3838
701C
600C
C00C
C00C
C00C
C00C
C018
C018
C030
6060
3FC0
1F80
ENDCHAR

STARTCHAR char214
ENCODING 214
SWIDTH 25 0
DWIDTH 16 0
BBX 14 18 1 0
BITMAP
0330
0330
0000
07C0
1FF0
3838
701C
600C
C00C
C00C
C00C
C00C
C018
C018
C030
6060
3FC0
1F80
ENDCHAR

STARTCHAR char216
ENCODING 216
SWIDTH 25 0
DWIDTH 16 0
BBX 15 16 0 -1
BITMAP
03E2
0FFC
1C1C
381E
7026
6046
E086
C106
C20E
C40C
EC1C
F818
7070
7FE0
8F80
8000
ENDCHAR

STARTCHAR char217
ENCODING 217
SWIDTH 16 0
DWIDTH 14 0
BBX 13 19 1 0
BITMAP
0E00
0700
0100
0000
3018
3038
6030
6030
6030
6030
6070
4060
C060
C060
C060
C0C0
E1C0
7F80
3E00
ENDCHAR

STARTCHAR char218
ENCODING 218
SWIDTH 16 0
DWIDTH 14 0
BBX 13 19 1 0
BITMAP
00C0
0180
0300
0000
3018
3038
6030
6030
6030
6030
6070
4060
C060
C060
C060
C0C0
E1C0
7F80
3E00
ENDCHAR

STARTCHAR char219
ENCODING 219
SWIDTH 16 0
DWIDTH 14 0
BBX 13 19 1 0
BITMAP
0380
06C0
0CC0
0000
3018
3038
6030
6030
6030
6030
6070
4060
C060
C060
C060
C0C0
E1C0
7F80
3E00
ENDCHAR

STARTCHAR char220
ENCODING 220
SWIDTH 16 0
DWIDTH 14 0
BBX 13 18 1 0
BITMAP
0660
0660
0000
3018
3038
6030
6030
6030
6030
6070
4060
C060
C060
C060
C0C0
E1C0
7F80
3E00
ENDCHAR

STARTCHAR char222
ENCODING 222
SWIDTH 3 0
DWIDTH 21 0
BBX 0 0 0 0
BITMAP
ENDCHAR

STARTCHAR char223
ENCODING 223
SWIDTH 3 0
DWIDTH 11 0
BBX 11 15 0 0
BITMAP
0780
1FC0
18E0
3060
3060
30C0
3780
6780
61C0
60C0
60C0
41C0
C180
DF00
DC00
ENDCHAR

STARTCHAR char224
ENCODING 224
SWIDTH 3 0
DWIDTH 11 0
BBX 11 15 0 0
BITMAP
0C00
0600
0300
0000
0F80
3FC0
60C0
00C0
0FC0
7F80
E180
C180
C380
FFA0
3DC0
ENDCHAR

STARTCHAR char225
ENCODING 225
SWIDTH 3 0
DWIDTH 11 0
BBX 11 15 0 0
BITMAP
0180
0300
0600
0000
0F80
3FC0
60C0
00C0
0FC0
7F80
E180
C180
C380
FFA0
3DC0
ENDCHAR

STARTCHAR char226
ENCODING 226
SWIDTH 3 0
DWIDTH 11 0
BBX 11 15 0 0
BITMAP
0700
0D80
1980
0000
0F80
3FC0
60C0
00C0
0FC0
7F80
E180
C180
C380
FFA0
3DC0
ENDCHAR

STARTCHAR char227
ENCODING 227
SWIDTH 3 0
DWIDTH 11 0
BBX 11 15 0 0
BITMAP
0E20
0FC0
0980
0000
0F80
3FC0
60C0
00C0
0FC0
7F80
E180
C180
C380
FFA0
3DC0
ENDCHAR

STARTCHAR char228
ENCODING 228
SWIDTH 3 0
DWIDTH 11 0
BBX 10 14 0 0
BITMAP
0CC0
0DC0
0F80
3FC0
30C0
60C0
00C0
1FC0
7F80
E180
C180
C380
FFC0
3CC0
ENDCHAR

STARTCHAR char229
ENCODING 229
SWIDTH 3 0
DWIDTH 11 0
BBX 10 16 0 0
BITMAP
0700
0F80
0C80
0F80
0F80
3FC0
31C0
60C0
00C0
3FC0
7F80
E180
C180
C380
FFC0
3CC0
ENDCHAR

STARTCHAR char230
ENCODING 230
SWIDTH 33 0
DWIDTH 18 0
BBX 17 11 0 0
BITMAP
1F1E00
3FFF00
60C380
018180
3FFF80
7FFF80
E18000
C38000
C38700
7EFE00
3C7800
ENDCHAR

STARTCHAR char231
ENCODING 231
SWIDTH 3 0
DWIDTH 11 0
BBX 10 16 0 -5
BITMAP
0F80
3FC0
70C0
6040
E000
C000
C000
C000
E180
7F00
3E00
0000
1800
1800
1800
1000
ENDCHAR

STARTCHAR char232
ENCODING 232
SWIDTH 8 0
DWIDTH 12 0
BBX 10 15 0 0
BITMAP
0E00
0600
0300
0000
1F00
3F80
70C0
60C0
FFC0
FFC0
C000
C000
E180
7F00
3E00
ENDCHAR

STARTCHAR char233
ENCODING 233
SWIDTH 8 0
DWIDTH 12 0
BBX 10 15 0 0
BITMAP
0180
0300
0300
0000
1F00
3F80
70C0
60C0
FFC0
FFC0
C000
C000
E180
7F00
3E00
ENDCHAR

STARTCHAR char234
ENCODING 234
SWIDTH 8 0
DWIDTH 12 0
BBX 10 15 0 0
BITMAP
0700
0D80
1C80
0000
1F00
3F80
70C0
60C0
FFC0
FFC0
C000
C000
E180
7F00
3E00
ENDCHAR

STARTCHAR char235
ENCODING 235
SWIDTH 8 0
DWIDTH 12 0
BBX 10 14 0 0
BITMAP
0C80
0D80
0000
1F00
3F80
70C0
60C0
FFC0
FFC0
C000
C000
E180
7F00
3E00
ENDCHAR

STARTCHAR char236
ENCODING 236
SWIDTH 21 0
DWIDTH 5 0
BBX 5 15 0 0
BITMAP
70
30
18
00
30
30
30
30
30
60
60
60
60
C0
C0
ENDCHAR

STARTCHAR char237
ENCODING 237
SWIDTH 21 0
DWIDTH 5 0
BBX 7 15 0 0
BITMAP
0E
1C
18
00
30
30
30
30
30
60
60
60
60
C0
C0
ENDCHAR

STARTCHAR char238
ENCODING 238
SWIDTH 21 0
DWIDTH 5 0
BBX 7 15 0 0
BITMAP
38
7C
64
00
30
30
30
30
30
60
60
60
60
C0
C0
ENDCHAR

STARTCHAR char239
ENCODING 239
SWIDTH 21 0
DWIDTH 5 0
BBX 7 14 0 0
BITMAP
66
66
00
30
30
30
30
30
60
60
60
60
C0
C0
ENDCHAR

STARTCHAR char241
ENCODING 241
SWIDTH 8 0
DWIDTH 12 0
BBX 11 15 0 0
BITMAP
0620
0FC0
0980
0000
3780
3FC0
38C0
70C0
60C0
6080
6180
4180
C180
C180
C100
ENDCHAR

STARTCHAR char242
ENCODING 242
SWIDTH 8 0
DWIDTH 12 0
BBX 11 15 0 0
BITMAP
0E00
0600
0300
0000
0F80
3FC0
70E0
6060
E060
C060
C060
C0C0
E1C0
7F80
3F00
ENDCHAR

STARTCHAR char243
ENCODING 243
SWIDTH 8 0
DWIDTH 12 0
BBX 11 15 0 0
BITMAP
01C0
0380
0300
0000
0F80
3FC0
70E0
6060
E060
C060
C060
C0C0
E1C0
7F80
3F00
ENDCHAR

STARTCHAR char244
ENCODING 244
SWIDTH 8 0
DWIDTH 12 0
BBX 11 15 0 0
BITMAP
0380
0780
0CC0
0000
0F80
3FC0
70E0
6060
E060
C060
C060
C0C0
E1C0
7F80
3F00
ENDCHAR

STARTCHAR char245
ENCODING 245
SWIDTH 8 0
DWIDTH 12 0
BBX 11 15 0 0
BITMAP
0220
0FE0
09C0
0000
0F80
3FC0
70E0
6060
E060
C060
C060
C0C0
E1C0
7F80
3F00
ENDCHAR

STARTCHAR char246
ENCODING 246
SWIDTH 8 0
DWIDTH 12 0
BBX 11 14 0 0
BITMAP
0CC0
0CC0
0000
0F80
3FC0
70E0
6060
E060
C060
C060
C0C0
E1C0
7F80
3F00
ENDCHAR

STARTCHAR char247
ENCODING 247
SWIDTH 8 0
DWIDTH 12 0
BBX 11 7 0 2
BITMAP
0C00
0C00
0000
FFE0
FFE0
0C00
0C00
ENDCHAR

STARTCHAR char248
ENCODING 248
SWIDTH 8 0
DWIDTH 12 0
BBX 11 12 0 -1
BITMAP
0F20
3FC0
70E0
6160
C260
C460
C860
D0C0
E1C0
7F80
9E00
8000
ENDCHAR

STARTCHAR char249
ENCODING 249
SWIDTH 8 0
DWIDTH 12 0
BBX 10 15 1 0
BITMAP
1C00
0C00
0600
0000
20C0
60C0
6180
4180
4180
4180
C300
C300
C700
FF00
7300
ENDCHAR

STARTCHAR char250
ENCODING 250
SWIDTH 8 0
DWIDTH 12 0
BBX 10 15 1 0
BITMAP
0380
0700
0600
0000
20C0
60C0
6180
4180
4180
4180
C300
C300
C700
FF00
7300
ENDCHAR

STARTCHAR char251
ENCODING 251
SWIDTH 8 0
DWIDTH 12 0
BBX 10 15 1 0
BITMAP
0E00
1F00
1900
0000
20C0
60C0
6180
4180
4180
4180
C300
C300
C700
FF00
7300
ENDCHAR

STARTCHAR char252
ENCODING 252
SWIDTH 8 0
DWIDTH 12 0
BBX 10 14 1 0
BITMAP
1980
1980
0000
20C0
60C0
6180
4180
4180
4180
C380
C300
C700
FF00
7300
ENDCHAR

STARTCHAR char255
ENCODING 255
SWIDTH 43 0
DWIDTH 10 0
BBX 12 17 -1 -3
BITMAP
0CC0
0CC0
0000
3060
3060
30C0
10C0
1980
1980
1B00
1B00
1E00
1E00
0C00
1C00
5800
7000
ENDCHAR
ENDFONT
